<mxfile host="app.diagrams.net" modified="2023-05-18T03:36:56.812Z" agent="Mozilla/5.0 (Macintosh; Intel Mac OS X 10_15_7) AppleWebKit/537.36 (KHTML, like Gecko) Chrome/113.0.0.0 Safari/537.36" version="21.2.9" etag="a4m3bNOLoS2Dz4Gs3rFN" type="github">
  <diagram name="Page-1" id="KZ8X3SxO-knhd2NS7IPU">
    <mxGraphModel>
      <root>
        <mxCell id="0" />
        <mxCell id="1" parent="0" />
      </root>
    </mxGraphModel>
  </diagram>
</mxfile>
